<svg width="1025" height="844" viewBox="0 0 1025 844" fill="none" xmlns="http://www.w3.org/2000/svg">
<path d="M1040.66 152.163C1058.65 -12.5496 939.698 -160.653 774.986 -178.636C610.274 -196.619 462.17 -77.6717 444.187 87.0405C426.204 251.753 545.152 399.856 709.864 417.839C874.576 435.822 1022.68 316.875 1040.66 152.163Z" stroke="#FF0041" stroke-width="1.61" stroke-miterlimit="10"/>
<path d="M447.098 175.86C474.102 157.112 494.94 130.776 506.976 100.184C519.013 69.5921 521.707 36.1178 514.718 3.99462C507.729 -28.1286 491.371 -57.4577 467.713 -80.2838C444.054 -103.11 414.158 -118.407 381.806 -124.242C349.453 -130.076 316.097 -126.186 285.955 -113.062C255.814 -99.938 230.241 -78.1706 212.471 -50.5124C194.701 -22.8541 185.532 9.45248 186.124 42.3218C186.716 75.1911 197.042 107.147 215.796 134.147C240.94 170.348 279.433 195.079 322.809 202.901C366.185 210.723 410.892 200.997 447.098 175.86V175.86Z" stroke="#FF0041" stroke-width="1.61" stroke-miterlimit="10"/>
<path d="M886.361 650.339C913.365 631.592 934.203 605.259 946.241 574.669C958.279 544.079 960.976 510.607 953.99 478.484C947.005 446.362 930.651 417.032 906.996 394.205C883.341 371.377 853.449 356.076 821.098 350.237C788.748 344.398 755.392 348.283 725.25 361.402C695.107 374.52 669.532 396.282 651.758 423.935C633.983 451.589 624.808 483.892 625.393 516.76C625.977 549.628 636.295 581.585 655.042 608.589C680.18 644.8 718.674 669.542 762.055 677.371C805.435 685.201 850.149 675.477 886.361 650.339V650.339Z" stroke="#FF0041" stroke-width="1.61" stroke-miterlimit="10"/>
<path d="M1147.01 3.63762C1174.02 -15.1088 1194.86 -41.4416 1206.89 -72.031C1218.93 -102.62 1221.63 -136.092 1214.64 -168.214C1207.66 -200.336 1191.3 -229.666 1167.65 -252.494C1144 -275.322 1114.11 -290.623 1081.76 -296.463C1049.41 -302.303 1016.05 -298.418 985.908 -285.302C955.766 -272.185 930.19 -250.424 912.414 -222.772C894.639 -195.119 885.462 -162.817 886.045 -129.949C886.628 -97.0818 896.944 -65.1251 915.689 -38.1203C940.828 -1.9083 979.322 22.8346 1022.7 30.6657C1066.09 38.4968 1110.8 28.7745 1147.01 3.63762V3.63762Z" stroke="#FF0041" stroke-width="1.61" stroke-miterlimit="10"/>
<path d="M834.905 55.9004C847.571 74.1457 854.543 95.7373 854.938 117.945C855.333 140.152 849.134 161.978 837.124 180.662C825.115 199.346 807.834 214.05 787.469 222.913C767.103 231.776 744.566 234.401 722.708 230.456C700.85 226.511 680.653 216.173 664.671 200.749C648.689 185.325 637.64 165.508 632.92 143.804C628.2 122.1 630.023 99.4846 638.157 78.8166C646.291 58.1486 660.371 40.3567 678.616 27.6908C690.73 19.2799 704.382 13.3377 718.793 10.2034C733.204 7.06903 748.091 6.80405 762.604 9.42361C777.117 12.0432 790.972 17.4959 803.377 25.4704C815.783 33.445 826.496 43.7852 834.905 55.9004V55.9004Z" stroke="#FF0041" stroke-width="1.61" stroke-miterlimit="10"/>
<path d="M1018.19 140.711C1036.16 -23.8918 917.289 -171.897 752.686 -189.868C588.084 -207.839 440.079 -88.9705 422.108 75.6319C404.137 240.234 523.005 388.239 687.608 406.21C852.21 424.181 1000.22 305.313 1018.19 140.711Z" stroke="#FF5A00" stroke-width="0.5" stroke-miterlimit="10"/>
<path d="M495.091 45.9394C505.042 -45.2038 439.222 -127.157 348.079 -137.108C256.936 -147.058 174.983 -81.239 165.032 9.90423C155.081 101.047 220.901 183 312.044 192.951C403.187 202.902 485.14 137.083 495.091 45.9394Z" stroke="#FF5A00" stroke-width="0.5" stroke-miterlimit="10"/>
<path d="M864.022 638.781C890.993 620.06 911.808 593.762 923.833 563.212C935.858 532.662 938.555 499.232 931.581 467.15C924.607 435.067 908.276 405.773 884.653 382.972C861.03 360.171 831.177 344.887 798.868 339.053C766.559 333.219 733.245 337.096 703.14 350.195C673.034 363.294 647.489 385.026 629.735 412.643C611.98 440.26 602.814 472.521 603.395 505.348C603.976 538.174 614.278 570.091 632.998 597.063C645.428 614.972 661.264 630.256 679.601 642.045C697.938 653.833 718.417 661.895 739.87 665.769C761.322 669.643 783.328 669.253 804.63 664.623C825.932 659.992 846.113 651.211 864.022 638.781V638.781Z" stroke="#FF5A00" stroke-width="0.5" stroke-miterlimit="10"/>
<path d="M1195 -126.298C1204.95 -217.441 1139.13 -299.394 1047.99 -309.345C956.849 -319.296 874.896 -253.476 864.945 -162.333C854.994 -71.1899 920.813 10.763 1011.96 20.7139C1103.1 30.6647 1185.05 -35.1547 1195 -126.298Z" stroke="#FF5A00" stroke-width="0.5" stroke-miterlimit="10"/>
<path d="M812.475 44.5811C825.12 62.7936 832.08 84.347 832.475 106.515C832.871 128.684 826.683 150.471 814.696 169.123C802.708 187.775 785.458 202.453 765.128 211.301C744.799 220.149 722.301 222.769 700.482 218.831C678.663 214.893 658.501 204.573 642.547 189.176C626.593 173.779 615.564 153.997 610.853 132.331C606.142 110.666 607.962 88.0898 616.082 67.4584C624.202 46.827 638.258 29.067 656.472 16.4242C680.894 -0.527417 711.049 -7.08412 740.305 -1.80376C769.56 3.4766 795.52 20.1615 812.475 44.5811V44.5811Z" stroke="#FF5A00" stroke-width="0.5" stroke-miterlimit="10"/>
<path d="M976.483 -29.5123C1070.91 106.507 1037.2 293.315 901.174 387.749C765.147 482.183 578.356 448.446 483.934 312.434C389.512 176.423 423.217 -10.3926 559.244 -104.827C695.271 -199.261 882.062 -165.524 976.483 -29.5123Z" stroke="white" stroke-width="0.5" stroke-miterlimit="10"/>
<path d="M489.412 -11.406C449.307 -93.8543 349.958 -128.181 267.51 -88.0762C185.062 -47.9717 150.735 51.3771 190.84 133.825C230.944 216.274 330.293 250.6 412.741 210.496C495.19 170.391 529.516 71.0423 489.412 -11.406Z" stroke="white" stroke-width="0.5" stroke-miterlimit="10"/>
<path d="M917.726 443.881C867.016 367.496 763.986 346.683 687.601 397.393C611.217 448.103 590.403 551.133 641.113 627.518C691.823 703.902 794.854 724.716 871.238 674.006C947.623 623.296 968.436 520.265 917.726 443.881Z" stroke="white" stroke-width="0.5" stroke-miterlimit="10"/>
<path d="M1205.05 -93.0176C1215 -184.161 1149.18 -266.114 1058.04 -276.065C966.893 -286.015 884.94 -220.196 874.989 -129.053C865.038 -37.9096 930.857 44.0433 1022 53.9942C1113.14 63.945 1195.1 -1.87442 1205.05 -93.0176Z" stroke="white" stroke-width="0.5" stroke-miterlimit="10"/>
<path d="M822.526 77.8721C835.171 96.0847 842.132 117.638 842.527 139.806C842.922 161.975 836.735 183.762 824.747 202.414C812.759 221.066 795.51 235.744 775.18 244.592C754.85 253.44 732.353 256.06 710.533 252.122C688.714 248.184 668.553 237.864 652.599 222.467C636.645 207.07 625.615 187.288 620.904 165.622C616.193 143.957 618.013 121.381 626.133 100.749C634.253 80.118 648.309 62.358 666.523 49.7152C690.945 32.7636 721.1 26.2069 750.356 31.4873C779.611 36.7676 805.572 53.4525 822.526 77.8721V77.8721Z" stroke="white" stroke-width="0.5" stroke-miterlimit="10"/>
</svg>
