<svg width="326" height="316" viewBox="0 0 326 316" fill="none" xmlns="http://www.w3.org/2000/svg">
<path d="M158.07 315.24C188.321 315.242 217.894 306.273 243.048 289.467C268.202 272.662 287.808 248.775 299.385 220.826C310.963 192.878 313.993 162.124 308.091 132.454C302.19 102.783 287.623 75.5292 266.232 54.1382C244.841 32.7472 217.587 18.1796 187.917 12.2783C158.246 6.37705 127.492 9.40673 99.5438 20.9844C71.5955 32.5621 47.708 52.1678 30.9024 77.3218C14.0968 102.476 5.12791 132.049 5.12988 162.3C5.12988 202.863 21.2432 241.763 49.925 270.445C78.6068 299.127 117.508 315.24 158.07 315.24" fill="#0A64FF"/>
<g opacity="0.1">
<path opacity="0.1" d="M161.54 306.17C77.6502 306.17 9.41016 237.93 9.41016 154.05C9.41016 70.1703 77.6502 1.91992 161.54 1.91992C245.43 1.91992 313.66 70.1703 313.66 154.05C313.66 237.93 245.42 306.17 161.54 306.17ZM161.54 2.91992C78.2102 2.91992 10.4102 70.7203 10.4102 154.05C10.4102 237.38 78.2102 305.17 161.54 305.17C244.87 305.17 312.66 237.38 312.66 154.05C312.66 70.7203 244.87 2.91992 161.54 2.91992Z" fill="#D7E2F7"/>
</g>
<path d="M152.85 304.351C68.9602 304.351 0.720215 236.111 0.720215 152.221C0.720215 68.3307 69.0002 0.100586 152.85 0.100586C236.7 0.100586 305 68.3407 305 152.221C305 236.101 236.73 304.351 152.85 304.351ZM152.85 1.10059C69.5102 1.10059 1.72021 68.8907 1.72021 152.221C1.72021 235.551 69.5102 303.351 152.85 303.351C236.19 303.351 304 235.561 304 152.221C304 68.8807 236.18 1.10059 152.85 1.10059Z" fill="#D7E2F7"/>
<path d="M156.79 311.391C72.9102 311.391 4.66016 243.151 4.66016 159.271C4.66016 75.3905 72.9102 7.14062 156.79 7.14062C240.67 7.14062 308.92 75.3905 308.92 159.271C308.92 243.151 240.67 311.391 156.79 311.391ZM156.79 8.14062C73.4602 8.14062 5.66016 75.9405 5.66016 159.271C5.66016 242.601 73.4602 310.391 156.79 310.391C240.12 310.391 307.92 242.561 307.92 159.271C307.92 75.9805 240.12 8.14062 156.79 8.14062Z" fill="#D7E2F7"/>
<path d="M161.54 315.141C77.6502 315.141 9.41016 246.901 9.41016 163.011C9.41016 79.1207 77.6502 10.8906 161.54 10.8906C245.43 10.8906 313.66 79.1307 313.66 163.011C313.66 246.891 245.42 315.141 161.54 315.141ZM161.54 11.8906C78.2102 11.8906 10.4102 79.6807 10.4102 163.011C10.4102 246.341 78.2102 314.141 161.54 314.141C244.87 314.141 312.66 246.351 312.66 163.011C312.66 79.6707 244.87 11.8906 161.54 11.8906Z" fill="#0A64FF"/>
<path d="M173.78 315.141C89.8899 315.141 21.6499 246.901 21.6499 163.011C21.6499 79.1207 89.8899 10.8906 173.78 10.8906C257.67 10.8906 325.9 79.1307 325.9 163.011C325.9 246.891 257.66 315.141 173.78 315.141ZM173.78 11.8906C90.4399 11.8906 22.6499 79.6807 22.6499 163.011C22.6499 246.341 90.4399 314.141 173.78 314.141C257.12 314.141 324.9 246.351 324.9 163.011C324.9 79.6707 257.11 11.8906 173.78 11.8906Z" fill="#0A64FF"/>
<path d="M163 304.371C79.1101 304.371 10.8701 236.131 10.8701 152.241C10.8701 68.3512 79.1201 0.121094 163 0.121094C246.88 0.121094 315.12 68.3612 315.12 152.241C315.12 236.121 246.89 304.371 163 304.371ZM163 1.12109C79.6701 1.12109 11.8701 68.9112 11.8701 152.241C11.8701 235.571 79.6701 303.371 163 303.371C246.33 303.371 314.13 235.561 314.13 152.241C314.13 68.9212 246.34 1.12109 163 1.12109Z" fill="#0A64FF"/>
</svg>
