<svg width="247" height="239" viewBox="0 0 247 239" fill="none" xmlns="http://www.w3.org/2000/svg">
<path d="M119.052 238.361C141.926 238.362 164.286 231.581 183.306 218.873C202.325 206.166 217.149 188.105 225.904 166.972C234.658 145.84 236.949 122.586 232.486 100.152C228.024 77.7173 217.01 57.1099 200.835 40.9356C184.661 24.7613 164.054 13.7465 141.619 9.28436C119.185 4.82226 95.9312 7.11307 74.7988 15.8672C53.6663 24.6214 35.6045 39.4457 22.8974 58.4652C10.1903 77.4848 3.40866 99.8456 3.41016 122.719C3.41016 153.39 15.5938 182.803 37.2808 204.49C58.9678 226.177 88.3816 238.361 119.052 238.361Z" fill="#FF5A00"/>
<g opacity="0.1">
<path opacity="0.1" d="M121.676 231.502C58.2444 231.502 6.64648 179.904 6.64648 116.481C6.64648 53.0569 58.2444 1.45117 121.676 1.45117C185.107 1.45117 236.697 53.0569 236.697 116.481C236.697 179.904 185.099 231.502 121.676 231.502ZM121.676 2.2073C58.6678 2.2073 7.40261 53.4727 7.40261 116.481C7.40261 179.488 58.6678 230.746 121.676 230.746C184.683 230.746 235.941 179.488 235.941 116.481C235.941 53.4727 184.683 2.2073 121.676 2.2073Z" fill="#FDECEB"/>
</g>
<path d="M115.105 230.127C51.674 230.127 0.0761719 178.529 0.0761719 115.098C0.0761719 51.6666 51.7043 0.0761719 115.105 0.0761719C178.506 0.0761719 230.149 51.6741 230.149 115.098C230.149 178.521 178.529 230.127 115.105 230.127ZM115.105 0.832295C52.0899 0.832295 0.832295 52.09 0.832295 115.098C0.832295 178.106 52.0899 229.371 115.105 229.371C178.121 229.371 229.393 178.113 229.393 115.098C229.393 52.0824 178.113 0.832295 115.105 0.832295Z" fill="#FDECEB"/>
<path d="M118.084 235.449C54.6601 235.449 3.05469 183.851 3.05469 120.427C3.05469 57.0038 54.6601 5.39844 118.084 5.39844C181.507 5.39844 233.113 57.0038 233.113 120.427C233.113 183.851 181.507 235.449 118.084 235.449ZM118.084 6.15456C55.076 6.15456 3.81081 57.4196 3.81081 120.427C3.81081 183.435 55.076 234.693 118.084 234.693C181.092 234.693 232.357 183.405 232.357 120.427C232.357 57.4499 181.092 6.15456 118.084 6.15456Z" fill="#FDECEB"/>
<path d="M121.676 238.285C58.2444 238.285 6.64648 186.687 6.64648 123.256C6.64648 59.8248 58.2444 8.23438 121.676 8.23438C185.107 8.23438 236.697 59.8323 236.697 123.256C236.697 186.68 185.099 238.285 121.676 238.285ZM121.676 8.9905C58.6678 8.9905 7.40261 60.2482 7.40261 123.256C7.40261 186.264 58.6678 237.529 121.676 237.529C184.683 237.529 235.941 186.271 235.941 123.256C235.941 60.2406 184.683 8.9905 121.676 8.9905Z" fill="#FF5A00"/>
<path d="M130.93 238.285C67.4992 238.285 15.9014 186.687 15.9014 123.256C15.9014 59.8248 67.4992 8.23438 130.93 8.23438C194.362 8.23438 245.952 59.8323 245.952 123.256C245.952 186.68 194.354 238.285 130.93 238.285ZM130.93 8.9905C67.9151 8.9905 16.6575 60.2482 16.6575 123.256C16.6575 186.264 67.9151 237.529 130.93 237.529C193.946 237.529 245.196 186.271 245.196 123.256C245.196 60.2406 193.938 8.9905 130.93 8.9905Z" fill="#FF5A00"/>
<path d="M122.78 230.142C59.3484 230.142 7.75049 178.545 7.75049 115.113C7.75049 51.6822 59.3559 0.0917969 122.78 0.0917969C186.203 0.0917969 237.801 51.6898 237.801 115.113C237.801 178.537 186.211 230.142 122.78 230.142ZM122.78 0.84792C59.7718 0.84792 8.50661 52.1056 8.50661 115.113C8.50661 178.121 59.7718 229.386 122.78 229.386C185.787 229.386 237.052 178.114 237.052 115.113C237.052 52.1132 185.795 0.84792 122.78 0.84792Z" fill="#FF5A00"/>
</svg>
