<svg width="247" height="239" viewBox="0 0 247 239" fill="none" xmlns="http://www.w3.org/2000/svg">
<path d="M119.08 238.363C141.954 238.365 164.315 231.583 183.335 218.876C202.355 206.168 217.179 188.107 225.933 166.974C234.687 145.841 236.978 122.587 232.516 100.153C228.054 77.718 217.039 57.1104 200.865 40.9359C184.69 24.7615 164.083 13.7465 141.648 9.28439C119.214 4.82224 95.9595 7.11307 74.8268 15.8673C53.6942 24.6215 35.6321 39.446 22.9249 58.4658C10.2177 77.4855 3.436 99.8466 3.4375 122.721C3.4375 153.391 15.6213 182.805 37.3085 204.492C58.9957 226.179 88.4099 238.363 119.08 238.363Z" fill="#FF0041"/>
<g opacity="0.1">
<path opacity="0.1" d="M121.704 231.504C58.2722 231.504 6.67383 179.906 6.67383 116.482C6.67383 53.0574 58.2722 1.45117 121.704 1.45117C185.136 1.45117 236.727 53.0574 236.727 116.482C236.727 179.906 185.128 231.504 121.704 231.504ZM121.704 2.2073C58.6957 2.2073 7.42996 53.4733 7.42996 116.482C7.42996 179.49 58.6957 230.748 121.704 230.748C184.712 230.748 235.971 179.49 235.971 116.482C235.971 53.4733 184.712 2.2073 121.704 2.2073Z" fill="#FF0041"/>
</g>
<path d="M115.133 230.129C51.7009 230.129 0.102539 178.531 0.102539 115.099C0.102539 51.6671 51.7312 0.0761719 115.133 0.0761719C178.534 0.0761719 230.178 51.6747 230.178 115.099C230.178 178.523 178.557 230.129 115.133 230.129ZM115.133 0.832303C52.1168 0.832303 0.85867 52.0905 0.85867 115.099C0.85867 178.107 52.1168 229.373 115.133 229.373C178.149 229.373 229.422 178.115 229.422 115.099C229.422 52.083 178.141 0.832303 115.133 0.832303Z" fill="#FDECEB"/>
<path d="M118.112 235.451C54.688 235.451 3.08203 183.853 3.08203 120.429C3.08203 57.0043 54.688 5.39844 118.112 5.39844C181.537 5.39844 233.143 57.0043 233.143 120.429C233.143 183.853 181.537 235.451 118.112 235.451ZM118.112 6.15457C55.1039 6.15457 3.83816 57.4202 3.83816 120.429C3.83816 183.437 55.1039 234.695 118.112 234.695C181.121 234.695 232.386 183.407 232.386 120.429C232.386 57.4504 181.121 6.15457 118.112 6.15457Z" fill="#FDECEB"/>
<path d="M121.704 238.287C58.2722 238.287 6.67383 186.689 6.67383 123.257C6.67383 59.8253 58.2722 8.23438 121.704 8.23438C185.136 8.23438 236.727 59.8329 236.727 123.257C236.727 186.681 185.128 238.287 121.704 238.287ZM121.704 8.99051C58.6957 8.99051 7.42996 60.2487 7.42996 123.257C7.42996 186.266 58.6957 237.531 121.704 237.531C184.712 237.531 235.971 186.273 235.971 123.257C235.971 60.2412 184.712 8.99051 121.704 8.99051Z" fill="#FF0041"/>
<path d="M130.959 238.287C67.5271 238.287 15.9287 186.689 15.9287 123.257C15.9287 59.8253 67.5271 8.23438 130.959 8.23438C194.391 8.23438 245.982 59.8329 245.982 123.257C245.982 186.681 194.383 238.287 130.959 238.287ZM130.959 8.99051C67.943 8.99051 16.6848 60.2487 16.6848 123.257C16.6848 186.266 67.943 237.531 130.959 237.531C193.975 237.531 245.226 186.273 245.226 123.257C245.226 60.2412 193.967 8.99051 130.959 8.99051Z" fill="#FF0041"/>
<path d="M122.808 230.145C59.3762 230.145 7.77783 178.546 7.77783 115.115C7.77783 51.6827 59.3838 0.0917969 122.808 0.0917969C186.232 0.0917969 237.831 51.6903 237.831 115.115C237.831 178.539 186.24 230.145 122.808 230.145ZM122.808 0.847928C59.7997 0.847928 8.53396 52.1062 8.53396 115.115C8.53396 178.123 59.7997 229.389 122.808 229.389C185.816 229.389 237.082 178.115 237.082 115.115C237.082 52.1137 185.824 0.847928 122.808 0.847928Z" fill="#FF0041"/>
</svg>
