<svg width="167" height="158" viewBox="0 0 167 158" fill="none" xmlns="http://www.w3.org/2000/svg">
<g clip-path="url(#clip0)">
<path d="M74.9799 124.786L26.7649 100.336L29.6579 46.3298L29.8079 46.2318L74.9409 16.7998L75.1339 16.9248L120.264 46.3078L123.196 100.289L122.991 100.393L74.9799 124.786ZM27.4949 99.9118L74.9799 123.992L122.466 99.8668L119.576 46.7048L74.9409 17.6438L30.3449 46.7268L27.4949 99.9118Z" fill="#434048"/>
<path d="M67.0451 112.057L21.4441 92.5076L21.4751 92.2456L27.2351 43.1956L66.9661 13.4766L106.776 43.1486L112.647 92.4166L67.0451 112.057ZM22.2081 92.0646L67.0451 111.287L111.882 91.9736L106.11 43.5346L66.9671 14.3606L27.9031 43.5796L22.2081 92.0646Z" fill="white"/>
<path d="M59.1119 99.3274L16.1169 84.6864L16.1749 84.3814L24.8139 40.0614L24.9049 39.9814L58.9919 10.1484L93.2899 39.9904L102.106 84.5474L59.1119 99.3274ZM16.9289 84.2144L59.1109 98.5804L101.292 84.0784L92.6439 40.3654L58.9929 11.0854L25.4609 40.4344L16.9289 84.2144Z" fill="white"/>
<path d="M51.1769 86.6457L10.7759 76.9157L10.8789 76.5597L22.3899 36.9697L22.4489 36.9077L51.0159 6.8457L51.2739 7.1147L79.8039 36.8777L79.8279 36.9607L91.5769 76.7297L51.1769 86.6457ZM11.6619 76.3987L51.1749 85.9177L90.6879 76.2197L79.1739 37.2427L51.0189 7.8717L23.0199 37.3317L11.6619 76.3987Z" fill="white"/>
<path d="M43.2419 73.9334L43.1959 73.9274L5.41089 69.1244L5.58789 68.6964L19.9909 33.8064L43.0419 3.48438L66.3389 33.7704L81.0719 68.8944L43.2419 73.9334ZM6.41789 68.5384L43.2399 73.2204L80.0619 68.3154L65.7039 34.0874L43.0459 4.64938L20.5829 34.1974L6.41789 68.5384Z" fill="white"/>
<path d="M0 61.294L0.304 60.762L35.067 0L70.615 61.017L0 61.294ZM35.073 1.415L1.222 60.581L69.386 60.313L35.073 1.415Z" fill="white"/>
<path d="M91.0571 32.9961L139.272 57.4461L136.379 111.451L136.228 111.55L91.0961 140.983L90.9021 140.857L45.7731 111.475L42.8411 57.4931L43.0461 57.3891L91.0571 32.9961ZM138.541 57.8691L91.0571 33.7911L43.5711 57.9151L46.4601 111.077L91.0961 140.139L135.692 111.056L138.541 57.8691Z" fill="#434048"/>
<path d="M98.9909 45.7266L144.593 65.2756L144.562 65.5376L138.801 114.588L99.0709 144.307L59.2609 114.634L53.3889 65.3666L98.9909 45.7266ZM143.828 65.7166L98.9909 46.4946L54.1539 65.8076L59.9269 114.247L99.0689 143.422L138.134 114.202L143.828 65.7166Z" fill="white"/>
<path d="M106.925 58.4551L149.919 73.0981L149.861 73.4011L141.223 117.723L141.132 117.802L107.044 147.636L72.7469 117.792L63.9309 73.2341L106.925 58.4551ZM149.107 73.5681L106.926 59.2031L64.7459 73.7041L73.3939 117.417L107.045 146.696L140.576 117.349L149.107 73.5681Z" fill="white"/>
<path d="M114.86 71.1377L155.261 80.8667L155.157 81.2237L143.647 120.814L143.588 120.875L115.02 150.937L114.763 150.668L86.232 120.905L86.208 120.822L74.46 81.0507L114.86 71.1377ZM154.375 81.3817L114.861 71.8637L75.349 81.5617L86.862 120.54L115.017 149.911L143.016 120.45L154.375 81.3817Z" fill="white"/>
<path d="M122.794 83.8496L122.841 83.8556L160.626 88.6586L160.449 89.0876L146.046 123.977L122.994 154.299L99.6981 124.014L84.9651 88.8886L122.794 83.8496ZM159.618 89.2426L122.797 84.5626L85.9741 89.4676L100.333 123.695L122.99 153.133L145.454 123.584L159.618 89.2426Z" fill="white"/>
<path d="M166.037 96.4893L165.733 97.0203L130.97 157.782L95.4209 96.7663L166.037 96.4893ZM130.964 156.367L164.815 97.2013L96.6499 97.4703L130.964 156.367Z" fill="white"/>
<path d="M133.716 108.339V49.6864L82.919 20.3584L32.123 49.6864V108.339L82.919 137.666L133.716 108.339Z" fill="white"/>
<path d="M38.6411 73.06L40.1601 71.254C41.5351 72.445 42.9101 73.122 44.6961 73.122C46.2551 73.122 47.2411 72.404 47.2411 71.316V71.275C47.2411 70.248 46.6651 69.695 43.9971 69.079C40.9401 68.339 39.2151 67.436 39.2151 64.789V64.747C39.2151 62.286 41.2681 60.582 44.1201 60.582C46.2141 60.582 47.8761 61.218 49.3331 62.388L47.9791 64.296C46.6861 63.332 45.3931 62.819 44.0791 62.819C42.6021 62.819 41.7401 63.579 41.7401 64.523V64.562C41.7401 65.671 42.3971 66.164 45.1471 66.821C48.1841 67.559 49.7651 68.648 49.7651 71.029V71.07C49.7651 73.758 47.6511 75.359 44.6341 75.359C42.4381 75.359 40.3651 74.599 38.6411 73.06Z" fill="#434048"/>
<path d="M55.554 63.1261H50.998V60.7871H62.656V63.1261H58.099V75.1531H55.554V63.1261Z" fill="#434048"/>
<path d="M80.139 63.1261H75.582V60.7871H87.241V63.1261H82.684V75.1531H80.139V63.1261Z" fill="#434048"/>
<path d="M89.4971 60.7871H100.148V63.0461H92.0211V66.7791H99.2261V69.0371H92.0211V72.8961H100.251V75.1531H89.4971V60.7871Z" fill="#434048"/>
<path d="M101.872 73.06L103.392 71.254C104.767 72.445 106.142 73.122 107.927 73.122C109.487 73.122 110.472 72.404 110.472 71.316V71.275C110.472 70.248 109.897 69.695 107.229 69.079C104.171 68.339 102.447 67.436 102.447 64.789V64.747C102.447 62.286 104.5 60.582 107.352 60.582C109.446 60.582 111.108 61.218 112.565 62.388L111.211 64.296C109.918 63.332 108.625 62.819 107.311 62.819C105.834 62.819 104.972 63.579 104.972 64.523V64.562C104.972 65.671 105.628 66.164 108.379 66.821C111.416 67.559 112.996 68.648 112.996 71.029V71.07C112.996 73.758 110.883 75.359 107.865 75.359C105.669 75.359 103.597 74.599 101.872 73.06Z" fill="#434048"/>
<path d="M38.6201 87.8372V87.7962C38.6201 83.7122 41.6781 80.3662 46.0291 80.3662C48.6771 80.3662 50.2771 81.2902 51.6521 82.6042L50.0311 84.4722C48.8821 83.4042 47.6501 82.6862 46.0091 82.6862C43.2591 82.6862 41.2671 84.9432 41.2671 87.7552V87.7952C41.2671 90.6082 43.2591 92.9052 46.0091 92.9052C47.7731 92.9052 48.9021 92.1882 50.1341 91.0382L51.7551 92.6812C50.2571 94.2402 48.6151 95.2262 45.9271 95.2262C41.7391 95.2272 38.6201 91.9622 38.6201 87.8372Z" fill="#434048"/>
<path d="M53.9919 80.6133H56.5159V86.5863H63.3709V80.6133H65.8949V94.9793H63.3709V88.9263H56.5159V94.9793H53.9919V80.6133Z" fill="#434048"/>
<path d="M84.981 80.6133H87.321L95.018 90.5483V80.6133H97.501V94.9793H95.386L87.464 84.7603V94.9793H84.981V80.6133Z" fill="#434048"/>
<path d="M100.148 87.8372V87.7962C100.148 83.7752 103.226 80.3662 107.557 80.3662C110.061 80.3662 111.6 81.0652 113.078 82.3162L111.477 84.2252C110.369 83.2812 109.281 82.6862 107.455 82.6862C104.806 82.6862 102.795 85.0052 102.795 87.7552V87.7952C102.795 90.7512 104.745 92.9272 107.68 92.9272C109.035 92.9272 110.266 92.4952 111.148 91.8402V89.1502H107.474V86.9552H113.59V92.9882C112.174 94.1992 110.143 95.2262 107.598 95.2262C103.104 95.2272 100.148 92.0242 100.148 87.8372Z" fill="#434048"/>
<path d="M116.464 80.6133H127.116V82.8723H118.988V86.6053H126.193V88.8633H118.988V92.7223H127.219V94.9793H116.464V80.6133Z" fill="#434048"/>
<path d="M76.4051 75.1526L68.9141 60.6836L61.4241 75.1526H76.4051Z" fill="#434048"/>
<path d="M82.9539 95.0305L75.4629 80.5615L67.9719 95.0305H82.9539Z" fill="#434048"/>
<path d="M115.701 66.4411V66.4241C115.701 64.7621 116.983 63.3721 118.796 63.3721C120.609 63.3721 121.874 64.7461 121.874 66.4081V66.4241C121.874 68.0861 120.593 69.4771 118.779 69.4771C116.966 69.4781 115.701 68.1031 115.701 66.4411ZM120.786 66.4411V66.4241C120.786 65.2781 119.951 64.3241 118.779 64.3241C117.607 64.3241 116.789 65.2601 116.789 66.4081V66.4241C116.789 67.5711 117.624 68.5241 118.796 68.5241C119.969 68.5241 120.786 67.5891 120.786 66.4411Z" fill="#434048"/>
<path d="M122.736 63.4727H127.131V64.4167H123.773V66.0287H126.751V66.9727H123.773V69.3757H122.736V63.4727Z" fill="#434048"/>
<path d="M127.13 71.624H116.011V72.568H127.13V71.624Z" fill="#434048"/>
</g>
<defs>
<clipPath id="clip0">
<rect width="166.037" height="157.782" fill="white"/>
</clipPath>
</defs>
</svg>
