<svg width="10" height="6" viewBox="0 0 10 6" fill="none" xmlns="http://www.w3.org/2000/svg">
<path d="M0.996067 -0.000558681C1.12767 -0.00131956 1.25814 0.023905 1.37997 0.0736696C1.50181 0.123434 1.61263 0.196761 1.70607 0.289442L4.99607 3.58944L8.28607 0.289443C8.47737 0.125617 8.72344 0.04001 8.97512 0.0497312C9.2268 0.0594523 9.46554 0.163783 9.64363 0.341878C9.82173 0.519972 9.92606 0.758712 9.93578 1.01039C9.9455 1.26206 9.85989 1.50814 9.69607 1.69944L5.69607 5.69944C5.5087 5.88569 5.25525 5.99023 4.99107 5.99023C4.72688 5.99023 4.47343 5.88569 4.28607 5.69944L0.286067 1.69944C0.148461 1.55906 0.0552812 1.38123 0.0181765 1.18818C-0.0189282 0.99514 0.00168681 0.79544 0.0774455 0.614046C0.153204 0.432652 0.280746 0.277611 0.444129 0.168299C0.607513 0.058987 0.79949 0.000254049 0.996067 -0.000558681V-0.000558681Z" fill="black"/>
</svg>
