<svg width="1135" height="684" viewBox="0 0 1135 684" fill="none" xmlns="http://www.w3.org/2000/svg">
<path d="M717.761 783.701C835.539 665.923 835.539 474.967 717.761 357.189C599.983 239.41 409.026 239.41 291.248 357.188C173.47 474.967 173.47 665.923 291.248 783.701C409.026 901.479 599.983 901.479 717.761 783.701Z" stroke="#808080" stroke-width="3" stroke-miterlimit="10"/>
<path d="M237.62 428.68C270.588 430.991 303.5 423.473 332.195 407.078C360.89 390.683 384.078 366.147 398.828 336.573C413.578 306.999 419.227 273.715 415.059 240.93C410.892 208.146 397.097 177.333 375.417 152.389C353.738 127.445 325.149 109.491 293.265 100.796C261.381 92.1005 227.634 93.0558 196.293 103.54C164.952 114.025 137.424 133.568 117.191 159.698C96.9569 185.829 84.9263 217.372 82.6203 250.34C79.5311 294.542 94.1248 338.161 123.192 371.605C152.259 405.049 193.419 425.579 237.62 428.68Z" stroke="#808080" stroke-width="3" stroke-miterlimit="10"/>
<path d="M894.62 734.25C927.588 736.561 960.5 729.043 989.195 712.648C1017.89 696.253 1041.08 671.717 1055.83 642.143C1070.58 612.569 1076.23 579.285 1072.06 546.5C1067.89 513.716 1054.1 482.903 1032.42 457.96C1010.74 433.016 982.149 415.061 950.265 406.366C918.381 397.671 884.635 398.626 853.294 409.111C821.953 419.595 794.424 439.139 774.191 465.269C753.957 491.399 741.926 522.942 739.62 555.91C736.526 600.114 751.118 643.736 780.186 677.181C809.254 710.626 850.417 731.155 894.62 734.25V734.25Z" stroke="#808080" stroke-width="3" stroke-miterlimit="10"/>
<path d="M617.101 578.74C615.541 601.013 607.412 622.323 593.742 639.975C580.071 657.628 561.473 670.831 540.3 677.914C519.126 684.997 496.327 685.642 474.787 679.768C453.246 673.895 433.931 661.765 419.284 644.914C404.637 628.063 395.315 607.247 392.498 585.099C389.681 562.95 393.495 540.463 403.458 520.482C413.421 500.501 429.085 483.923 448.469 472.844C467.854 461.765 490.088 456.683 512.361 458.24C542.229 460.331 570.043 474.201 589.685 496.799C609.328 519.397 619.189 548.872 617.101 578.74V578.74Z" stroke="#808080" stroke-width="3" stroke-miterlimit="10"/>
<path d="M707.365 760.575C825.065 642.875 825.065 452.046 707.365 334.346C589.665 216.646 398.835 216.645 281.135 334.346C163.435 452.046 163.435 642.875 281.135 760.575C398.835 878.276 589.665 878.276 707.365 760.575Z" stroke="#B3B3B3" stroke-width="4" stroke-miterlimit="10"/>
<path d="M357.027 357.027C422.202 291.853 422.202 186.184 357.027 121.009C291.853 55.8345 186.184 55.8344 121.009 121.009C55.8345 186.184 55.8345 291.853 121.009 357.027C186.184 422.202 291.853 422.202 357.027 357.027Z" stroke="#B3B3B3" stroke-width="4" stroke-miterlimit="10"/>
<path d="M1014.03 662.605C1079.21 597.431 1079.21 491.762 1014.03 426.587C948.859 361.412 843.19 361.413 778.016 426.587C712.841 491.762 712.841 597.431 778.016 662.605C843.19 727.78 948.859 727.78 1014.03 662.605Z" stroke="#B3B3B3" stroke-width="4" stroke-miterlimit="10"/>
<path d="M606.641 555.741C605.087 577.975 596.975 599.249 583.33 616.873C569.686 634.497 551.121 647.679 529.985 654.751C508.848 661.824 486.089 662.47 464.586 656.608C443.082 650.746 423.799 638.639 409.177 621.817C394.554 604.996 385.248 584.216 382.436 562.106C379.623 539.996 383.43 517.548 393.376 497.602C403.321 477.655 418.958 461.106 438.309 450.047C457.66 438.987 479.857 433.915 502.091 435.471C516.853 436.501 531.268 440.429 544.512 447.032C557.756 453.634 569.57 462.78 579.279 473.949C588.988 485.117 596.401 498.089 601.096 512.123C605.791 526.157 607.675 540.978 606.641 555.741V555.741Z" stroke="#B3B3B3" stroke-width="4" stroke-miterlimit="10"/>
<path d="M707.37 776.85C825.07 659.15 825.07 468.32 707.37 350.62C589.67 232.92 398.84 232.92 281.14 350.62C163.44 468.32 163.44 659.15 281.14 776.85C398.84 894.55 589.67 894.55 707.37 776.85Z" stroke="white" stroke-width="4" stroke-miterlimit="10"/>
<path d="M357.032 373.292C422.206 308.117 422.206 202.448 357.032 137.274C291.857 72.0991 186.188 72.0991 121.013 137.274C55.8388 202.448 55.8389 308.117 121.014 373.292C186.188 438.466 291.857 438.466 357.032 373.292Z" stroke="white" stroke-width="4" stroke-miterlimit="10"/>
<path d="M1014.03 678.863C1079.21 613.688 1079.21 508.019 1014.03 442.845C948.857 377.67 843.188 377.67 778.013 442.845C712.839 508.02 712.839 613.688 778.013 678.863C843.188 744.038 948.857 744.038 1014.03 678.863Z" stroke="white" stroke-width="4" stroke-miterlimit="10"/>
<path d="M606.64 572.01C605.085 594.244 596.971 615.517 583.326 633.14C569.68 650.762 551.115 663.942 529.978 671.013C508.842 678.085 486.083 678.73 464.58 672.866C443.077 667.003 423.796 654.895 409.174 638.074C394.553 621.252 385.248 600.473 382.436 578.363C379.624 556.253 383.431 533.806 393.377 513.86C403.323 493.914 418.96 477.365 438.31 466.306C457.661 455.247 479.857 450.175 502.09 451.73C531.905 453.816 559.669 467.661 579.276 490.217C598.883 512.774 608.726 542.196 606.64 572.01Z" stroke="white" stroke-width="4" stroke-miterlimit="10"/>
<path d="M781.831 600.92C770.221 766.92 626.201 892.15 460.161 880.54C294.121 868.93 168.911 724.92 180.521 558.86C192.131 392.8 336.151 267.62 502.201 279.23C668.251 290.84 793.441 434.86 781.831 600.92Z" stroke="#4D4D4D" stroke-width="4" stroke-miterlimit="10"/>
<path d="M388.679 308.482C409.147 218.612 352.885 129.167 263.016 108.699C173.146 88.2319 83.7001 144.494 63.2328 234.363C42.7654 324.233 99.0272 413.679 188.897 434.146C278.766 454.613 368.212 398.352 388.679 308.482Z" stroke="#4D4D4D" stroke-width="4" stroke-miterlimit="10"/>
<path d="M1000.96 695.022C1066.13 629.848 1066.13 524.179 1000.96 459.004C935.782 393.83 830.113 393.83 764.938 459.004C699.764 524.179 699.764 629.848 764.938 695.022C830.113 760.197 935.782 760.197 1000.96 695.022Z" stroke="#4D4D4D" stroke-width="4" stroke-miterlimit="10"/>
<path d="M593.57 588.17C592.021 610.405 583.912 631.681 570.27 649.308C556.628 666.935 538.066 680.12 516.93 687.196C495.794 694.272 473.034 694.922 451.529 689.063C430.024 683.203 410.74 671.098 396.115 654.279C381.489 637.459 372.181 616.68 369.365 594.569C366.55 572.459 370.355 550.01 380.299 530.062C390.242 510.114 405.878 493.563 425.229 482.502C444.579 471.441 466.776 466.366 489.01 467.92C518.82 470.007 546.581 483.846 566.188 506.396C585.796 528.946 595.645 558.36 593.57 588.17V588.17Z" stroke="#4D4D4D" stroke-width="4" stroke-miterlimit="10"/>
</svg>
