<svg width="10" height="6" viewBox="0 0 10 6" fill="none" xmlns="http://www.w3.org/2000/svg">
<path d="M0.996067 0.00920694C1.12767 0.00844606 1.25814 0.0336707 1.37997 0.0834353C1.50181 0.1332 1.61263 0.206527 1.70607 0.299208L4.99607 3.59921L8.28607 0.299208C8.47737 0.135382 8.72344 0.0497756 8.97512 0.0594968C9.2268 0.069218 9.46554 0.173549 9.64363 0.351644C9.82173 0.529738 9.92606 0.768478 9.93578 1.02015C9.9455 1.27183 9.85989 1.51791 9.69607 1.70921L5.69607 5.70921C5.5087 5.89546 5.25525 6 4.99107 6C4.72688 6 4.47343 5.89546 4.28607 5.70921L0.286067 1.70921C0.148461 1.56882 0.0552812 1.391 0.0181765 1.19795C-0.0189282 1.00491 0.00168681 0.805206 0.0774455 0.623812C0.153204 0.442418 0.280746 0.287376 0.444129 0.178064C0.607513 0.0687526 0.79949 0.0100197 0.996067 0.00920694V0.00920694Z" fill="white"/>
</svg>
