<svg width="10" height="6" viewBox="0 0 10 6" fill="none" xmlns="http://www.w3.org/2000/svg">
<path d="M8.94046 6.00056C8.80885 6.00132 8.67839 5.97609 8.55655 5.92633C8.43471 5.87657 8.3239 5.80324 8.23046 5.71056L4.94046 2.41056L1.65046 5.71056C1.45916 5.87438 1.21308 5.95999 0.961403 5.95027C0.709727 5.94055 0.470988 5.83622 0.292893 5.65812C0.114799 5.48003 0.0104669 5.24129 0.000745782 4.98961C-0.00897537 4.73794 0.0766307 4.49186 0.240457 4.30056L4.24046 0.300558C4.42782 0.114307 4.68127 0.00976562 4.94546 0.00976562C5.20964 0.00976562 5.46309 0.114307 5.65046 0.300558L9.65046 4.30056C9.78806 4.44094 9.88124 4.61877 9.91835 4.81181C9.95545 5.00486 9.93484 5.20456 9.85908 5.38595C9.78332 5.56735 9.65578 5.72239 9.49239 5.8317C9.32901 5.94101 9.13703 5.99975 8.94046 6.00056V6.00056Z" fill="white"/>
</svg>
