<svg width="10" height="6" viewBox="0 0 10 6" fill="none" xmlns="http://www.w3.org/2000/svg">
<path d="M8.94046 5.99079C8.80885 5.99155 8.67839 5.96633 8.55655 5.91656C8.43471 5.8668 8.3239 5.79347 8.23046 5.70079L4.94046 2.40079L1.65046 5.70079C1.45916 5.86462 1.21308 5.95022 0.961403 5.9405C0.709727 5.93078 0.470988 5.82645 0.292893 5.64836C0.114799 5.47026 0.0104669 5.23152 0.000745782 4.97985C-0.00897537 4.72817 0.0766307 4.48209 0.240457 4.29079L4.24046 0.290792C4.42782 0.104542 4.68127 0 4.94546 0C5.20964 0 5.46309 0.104542 5.65046 0.290792L9.65046 4.29079C9.78806 4.43118 9.88124 4.609 9.91835 4.80205C9.95545 4.99509 9.93484 5.19479 9.85908 5.37619C9.78332 5.55758 9.65578 5.71262 9.49239 5.82193C9.32901 5.93125 9.13703 5.98998 8.94046 5.99079V5.99079Z" fill="black"/>
</svg>
