<svg width="10" height="12" viewBox="0 0 10 12" fill="none" xmlns="http://www.w3.org/2000/svg">
<path d="M9.00003 12.0006C8.86842 12.0013 8.73796 11.9761 8.61612 11.9263C8.49428 11.8766 8.38347 11.8032 8.29003 11.7106L5.00003 8.41056L1.71003 11.7106C1.51873 11.8744 1.27265 11.96 1.02097 11.9503C0.769298 11.9405 0.530558 11.8362 0.352464 11.6581C0.174369 11.48 0.0700372 11.2413 0.0603161 10.9896C0.0505949 10.7379 0.136201 10.4919 0.300027 10.3006L4.30003 6.30056C4.48739 6.11431 4.74084 6.00977 5.00503 6.00977C5.26921 6.00977 5.52266 6.11431 5.71003 6.30056L9.71003 10.3006C9.84763 10.4409 9.94081 10.6188 9.97792 10.8118C10.015 11.0049 9.99441 11.2046 9.91865 11.386C9.84289 11.5673 9.71535 11.7224 9.55196 11.8317C9.38858 11.941 9.1966 11.9997 9.00003 12.0006V12.0006Z" fill="white"/>
<path d="M9.00003 6.00056C8.86842 6.00132 8.73796 5.97609 8.61612 5.92633C8.49428 5.87656 8.38347 5.80324 8.29003 5.71056L5.00003 2.41056L1.71003 5.71056C1.51873 5.87438 1.27265 5.95999 1.02097 5.95027C0.769298 5.94055 0.530558 5.83622 0.352464 5.65812C0.174369 5.48003 0.0700372 5.24129 0.0603161 4.98961C0.0505949 4.73794 0.136201 4.49186 0.300027 4.30056L4.30003 0.300559C4.48739 0.114308 4.74084 0.00976563 5.00503 0.00976562C5.26921 0.00976562 5.52266 0.114308 5.71003 0.300559L9.71003 4.30056C9.84763 4.44094 9.94081 4.61877 9.97792 4.81181C10.015 5.00486 9.99441 5.20456 9.91865 5.38595C9.84289 5.56735 9.71535 5.72239 9.55196 5.8317C9.38858 5.94101 9.1966 5.99975 9.00003 6.00056V6.00056Z" fill="white"/>
</svg>
