<svg width="186" height="75" viewBox="0 0 186 75" fill="none" xmlns="http://www.w3.org/2000/svg">
<path d="M8.15855 44.573H8.2334C10.666 42.2153 12.6495 41.5416 15.606 41.5416C21.8185 41.5416 24.2885 45.4338 24.2885 51.1223V65.3436H16.13V54.1163C16.13 51.9082 16.5042 48.0535 12.4624 48.0535C9.13159 48.0535 8.19598 50.5235 8.19598 53.4052V65.3436H0V42.2901H8.15855V44.573ZM44.9469 50.7855C44.5352 48.5774 42.5517 46.8559 40.4185 46.8559C38.0982 46.8559 36.1521 48.3903 35.6656 50.7855H44.9469ZM52.1324 55.501H35.4036C35.4036 57.971 37.4994 60.3287 40.4185 60.3287C42.8137 60.3287 44.5352 58.9066 45.134 57.8587H51.9827C50.7477 63.2853 45.6205 66.1295 40.5682 66.1295C33.233 66.1295 27.769 61.8257 27.769 53.8543C27.769 46.1823 32.8213 41.5416 40.0068 41.5416C47.6789 41.5416 52.095 46.781 52.095 54.6402L52.1324 55.501ZM70.7324 48.9142C69.5722 48.0909 67.8507 47.4547 66.5034 47.305C65.5678 47.1927 63.9211 47.4173 63.7714 48.5774C63.5843 50.1493 66.6906 50.4861 67.8133 50.7106C71.9674 51.4591 75.4479 53.8543 74.924 58.7195C74.2503 64.7448 68.4495 66.6161 63.1352 66.0173C59.8793 65.643 56.773 64.3332 54.1908 62.3497L57.7835 57.0354C59.3179 58.3827 61.9376 59.8422 63.9586 60.1042C64.969 60.2165 66.5409 59.9171 66.6906 58.6446C66.8777 56.8482 63.734 56.5114 61.1891 55.8378C58.6443 55.1641 55.2012 52.8438 55.6503 48.7271C56.2865 43.1134 61.6757 41.1674 66.6531 41.7662C69.2354 42.0656 71.7803 42.7392 74.0258 44.0865L70.7324 48.9142ZM88.5839 65.4185H80.4254V49.1014L76.7952 49.0639V42.3275L80.4254 42.3649V35.4414H88.5839V42.3649L92.2515 42.3275V49.0639L88.5839 49.1014V65.4185ZM101.121 53.8543C101.121 56.8857 103.142 59.2434 106.623 59.2434C110.103 59.2434 112.124 56.8857 112.124 53.8543C112.124 50.8977 110.103 48.4277 106.623 48.4277C103.142 48.4277 101.121 50.8977 101.121 53.8543ZM119.684 65.3436H111.862V63.6221H111.787C110.14 65.3811 107.82 66.1295 105.238 66.1295C98.726 66.1295 94.0105 61.0772 94.0105 53.8169C94.0105 46.5565 98.6137 41.5416 105.163 41.5416C107.708 41.5416 110.178 42.4024 111.899 43.7871V42.2901H119.721L119.684 65.3436Z" fill="white"/>
<path d="M134.654 66.3164C137.011 66.3164 138.92 68.2251 138.92 70.5828C138.92 72.9406 137.011 74.8492 134.654 74.8492C132.296 74.8492 130.387 72.9406 130.387 70.5828C130.387 68.2251 132.296 66.3164 134.654 66.3164Z" fill="white"/>
<path d="M180.648 23.54C183.605 23.54 186 25.9352 186 28.8917C186 31.8483 183.605 34.2435 180.648 34.2435C177.692 34.2435 175.296 31.8483 175.296 28.8917C175.296 25.9352 177.692 23.54 180.648 23.54Z" fill="white"/>
<path d="M167.812 0C171.928 0 175.296 3.36821 175.296 7.48491C175.296 11.6016 171.928 14.9698 167.812 14.9698C163.695 14.9698 160.327 11.6016 160.327 7.48491C160.327 3.36821 163.695 0 167.812 0Z" fill="white"/>
<path d="M138.958 44.9095C138.958 56.7356 148.538 66.3163 160.364 66.3163V23.54C148.538 23.54 138.958 33.0833 138.958 44.9095Z" fill="white"/>
<path d="M175.296 59.879C175.296 51.6082 168.597 44.9092 160.327 44.9092V74.8488C168.597 74.8488 175.296 68.1498 175.296 59.879Z" fill="white"/>
</svg>
